<svg width="106" height="60" viewBox="0 0 106 60" fill="none" xmlns="http://www.w3.org/2000/svg">
<path d="M0 6C0 2.68629 2.68629 0 6 0H83.0119C85.055 0 86.9576 1.03961 88.0612 2.75895L104.754 28.765C106.105 30.8698 106.009 33.5918 104.512 35.5958L88.09 57.5898C86.9574 59.1066 85.1754 60 83.2823 60H6C2.6863 60 0 57.3137 0 54V6Z" fill="white"/>
<path d="M0.5 6C0.5 2.96244 2.96243 0.5 6 0.5H83.0119C84.8847 0.5 86.6288 1.45298 87.6405 3.02904L104.333 29.0351C105.572 30.9645 105.483 33.4596 104.112 35.2967L87.6893 57.2906C86.6511 58.6811 85.0176 59.5 83.2823 59.5H6C2.96244 59.5 0.5 57.0376 0.5 54V6Z" stroke="black" stroke-opacity="0.5"/>
</svg>
